<mxfile host="Electron" agent="Mozilla/5.0 (Windows NT 10.0; Win64; x64) AppleWebKit/537.36 (KHTML, like Gecko) draw.io/26.0.4 Chrome/128.0.6613.186 Electron/32.2.5 Safari/537.36" version="26.0.4">
  <diagram name="Page-1" id="EaX_q2qU6rxuNBLa8cP0">
    <mxGraphModel dx="697" dy="336" grid="1" gridSize="10" guides="1" tooltips="1" connect="1" arrows="1" fold="1" page="1" pageScale="1" pageWidth="1654" pageHeight="1169" math="0" shadow="0">
      <root>
        <mxCell id="0" />
        <mxCell id="1" parent="0" />
        <mxCell id="pcUNdi1KN2aFn-8Mllfz-5" style="edgeStyle=orthogonalEdgeStyle;rounded=0;orthogonalLoop=1;jettySize=auto;html=1;exitX=1;exitY=0;exitDx=0;exitDy=0;" edge="1" parent="1" source="pcUNdi1KN2aFn-8Mllfz-1">
          <mxGeometry relative="1" as="geometry">
            <mxPoint x="600" y="271.5675675675675" as="targetPoint" />
          </mxGeometry>
        </mxCell>
        <mxCell id="pcUNdi1KN2aFn-8Mllfz-6" style="edgeStyle=orthogonalEdgeStyle;rounded=0;orthogonalLoop=1;jettySize=auto;html=1;exitX=1;exitY=1;exitDx=0;exitDy=0;" edge="1" parent="1" source="pcUNdi1KN2aFn-8Mllfz-1">
          <mxGeometry relative="1" as="geometry">
            <mxPoint x="600" y="328.32432432432427" as="targetPoint" />
          </mxGeometry>
        </mxCell>
        <mxCell id="pcUNdi1KN2aFn-8Mllfz-1" value="" style="ellipse;whiteSpace=wrap;html=1;aspect=fixed;" vertex="1" parent="1">
          <mxGeometry x="420" y="260" width="80" height="80" as="geometry" />
        </mxCell>
        <mxCell id="pcUNdi1KN2aFn-8Mllfz-2" value="PC_1" style="text;html=1;align=center;verticalAlign=middle;whiteSpace=wrap;rounded=0;" vertex="1" parent="1">
          <mxGeometry x="430" y="285" width="60" height="30" as="geometry" />
        </mxCell>
        <mxCell id="pcUNdi1KN2aFn-8Mllfz-3" value="" style="endArrow=classic;html=1;rounded=0;" edge="1" parent="1">
          <mxGeometry width="50" height="50" relative="1" as="geometry">
            <mxPoint x="310" y="299.73" as="sourcePoint" />
            <mxPoint x="420" y="299.73" as="targetPoint" />
          </mxGeometry>
        </mxCell>
        <mxCell id="pcUNdi1KN2aFn-8Mllfz-7" value="des_key_in [63:0]" style="text;html=1;align=center;verticalAlign=middle;whiteSpace=wrap;rounded=0;" vertex="1" parent="1">
          <mxGeometry x="300" y="270" width="110" height="30" as="geometry" />
        </mxCell>
        <mxCell id="pcUNdi1KN2aFn-8Mllfz-8" value="c0 [27:0]" style="text;html=1;align=center;verticalAlign=middle;whiteSpace=wrap;rounded=0;" vertex="1" parent="1">
          <mxGeometry x="480" y="240" width="110" height="30" as="geometry" />
        </mxCell>
        <mxCell id="pcUNdi1KN2aFn-8Mllfz-9" value="d0 [27:0]" style="text;html=1;align=center;verticalAlign=middle;whiteSpace=wrap;rounded=0;" vertex="1" parent="1">
          <mxGeometry x="480" y="300" width="110" height="30" as="geometry" />
        </mxCell>
      </root>
    </mxGraphModel>
  </diagram>
</mxfile>
